<svg width="107" height="22" viewBox="0 0 107 22" fill="none" xmlns="http://www.w3.org/2000/svg">
<path d="M13.5004 12C14.2004 12.9 14.6804 14.04 14.9404 15.42C15.2204 16.8 15.3604 18.16 15.3604 19.5C15.3604 19.9 15.3504 20.23 15.3304 20.49C15.3104 20.75 15.3004 20.92 15.3004 21H11.1004C11.1804 20.48 11.2204 20.01 11.2204 19.59C11.2204 18.43 11.0704 17.18 10.7704 15.84C10.4904 14.48 10.1004 13.4 9.60039 12.6C9.20039 11.96 8.63039 11.35 7.89039 10.77C7.17039 10.19 6.44039 9.9 5.70039 9.9H4.80039C4.80039 13.04 4.83039 15.17 4.89039 16.29C4.95039 17.41 5.12039 18.98 5.40039 21H0.900391C1.04039 18.68 1.15039 16.65 1.23039 14.91C1.31039 13.17 1.35039 11.7 1.35039 10.5C1.35039 9.3 1.31039 7.83 1.23039 6.09C1.15039 4.35 1.04039 2.32 0.900391 0H9.60039C10.0604 0 10.7404 0.15 11.6404 0.45C12.5404 0.730001 13.3704 1.25 14.1304 2.01C14.9104 2.75 15.3004 3.78 15.3004 5.1C15.3004 6.64 14.8004 7.77 13.8004 8.49C12.8204 9.19 11.7804 9.64 10.6804 9.84C11.1604 10.04 11.6604 10.33 12.1804 10.71C12.7004 11.09 13.1404 11.52 13.5004 12ZM4.80039 8.7C5.82039 9.1 6.77039 9.3 7.65039 9.3C8.85039 9.3 9.82039 8.94 10.5604 8.22C11.3204 7.48 11.7004 6.44 11.7004 5.1C11.7004 3.6 11.2904 2.48 10.4704 1.74C9.65039 1 8.68039 0.630001 7.56039 0.630001C6.72039 0.630001 6.00039 0.820001 5.40039 1.2C5.14039 2.54 4.97039 3.74 4.89039 4.8C4.83039 5.84 4.80039 7.14 4.80039 8.7Z" fill="black"/>
<path d="M26.4098 5.1C27.6898 5.06 28.9498 5.32 30.1898 5.88C31.4298 6.44 32.4598 7.36 33.2798 8.64C34.0998 9.92 34.5098 11.54 34.5098 13.5C34.5098 15.38 34.1198 16.95 33.3398 18.21C32.5798 19.45 31.5798 20.37 30.3398 20.97C29.1198 21.55 27.8098 21.86 26.4098 21.9C24.8898 21.86 23.4898 21.54 22.2098 20.94C20.9498 20.32 19.9298 19.39 19.1498 18.15C18.3898 16.89 18.0098 15.34 18.0098 13.5C18.0098 11.56 18.4298 9.96 19.2698 8.7C20.1098 7.42 21.1698 6.49 22.4498 5.91C23.7498 5.33 25.0698 5.06 26.4098 5.1ZM26.3198 6C25.1998 6 24.3398 6.31 23.7398 6.93C23.1398 7.55 22.7298 8.42 22.5098 9.54C22.3098 10.66 22.2098 12.08 22.2098 13.8C22.2098 15.4 22.2998 16.69 22.4798 17.67C22.6798 18.65 23.0798 19.44 23.6798 20.04C24.2998 20.62 25.2098 20.94 26.4098 21C27.5698 20.96 28.4298 20.65 28.9898 20.07C29.5698 19.47 29.9298 18.69 30.0698 17.73C30.2298 16.77 30.3098 15.46 30.3098 13.8C30.3098 11.84 30.2198 10.33 30.0398 9.27C29.8798 8.21 29.5098 7.4 28.9298 6.84C28.3698 6.28 27.4998 6 26.3198 6Z" fill="black"/>
<path d="M42.9203 5.1C44.0203 5.1 45.0103 5.26 45.8903 5.58C46.7903 5.88 47.5203 6.22 48.0803 6.6C48.6403 6.96 48.9203 7.16 48.9203 7.2C48.8403 7.4 48.6603 7.82 48.3803 8.46C48.1203 9.08 47.8003 9.68 47.4203 10.26C47.0603 10.84 46.7203 11.13 46.4003 11.13C46.1803 11.13 46.0003 11 45.8603 10.74C45.7403 10.46 45.5903 10.01 45.4103 9.39C45.2103 8.67 44.9903 8.06 44.7503 7.56C44.5303 7.04 44.2003 6.6 43.7603 6.24C43.3203 5.88 42.7403 5.7 42.0203 5.7C41.2603 5.7 40.6703 5.91 40.2503 6.33C39.8303 6.75 39.6203 7.34 39.6203 8.1C39.6203 8.86 39.8203 9.49 40.2203 9.99C40.6203 10.47 41.1103 10.85 41.6903 11.13C42.2903 11.41 43.0903 11.72 44.0903 12.06C45.1303 12.4 45.9703 12.73 46.6103 13.05C47.2703 13.35 47.8203 13.78 48.2603 14.34C48.7003 14.9 48.9203 15.62 48.9203 16.5C48.9203 17.46 48.6603 18.36 48.1403 19.2C47.6403 20.02 46.9503 20.67 46.0703 21.15C45.2103 21.65 44.2603 21.9 43.2203 21.9C42.3203 21.9 41.3103 21.74 40.1903 21.42C39.0903 21.12 38.0703 20.78 37.1303 20.4C36.1903 20.02 35.7203 19.82 35.7203 19.8C35.7203 19.74 35.8603 19.34 36.1403 18.6C36.4203 17.84 36.7303 17.17 37.0703 16.59C37.4303 16.01 37.7803 15.78 38.1203 15.9C38.3003 15.96 38.4803 16.11 38.6603 16.35C38.8603 16.59 39.1303 16.98 39.4703 17.52C40.2303 18.68 40.9603 19.6 41.6603 20.28C42.3603 20.96 43.1803 21.3 44.1203 21.3C44.8203 21.3 45.3903 21.05 45.8303 20.55C46.2903 20.05 46.5203 19.5 46.5203 18.9C46.5203 18.18 46.1703 17.58 45.4703 17.1C44.7703 16.62 43.6903 16.08 42.2303 15.48C41.1503 15.02 40.2603 14.61 39.5603 14.25C38.8803 13.89 38.2903 13.45 37.7903 12.93C37.2903 12.41 37.0003 11.8 36.9203 11.1L36.8903 10.68C36.8903 9.92 37.0703 9.12 37.4303 8.28C37.7903 7.42 38.4203 6.68 39.3203 6.06C40.2203 5.42 41.4203 5.1 42.9203 5.1Z" fill="black"/>
<path d="M60.6273 21C60.6273 21.1 60.6773 20.95 60.7773 20.55C60.8973 20.13 60.9973 19.43 61.0773 18.45C61.1773 17.47 61.2273 16.12 61.2273 14.4C61.2273 11.96 61.1273 10.14 60.9273 8.94C60.7273 7.72 60.4573 6.93 60.1173 6.57C59.7973 6.19 59.3673 6 58.8273 6C57.6073 6 56.5273 6.72 55.5873 8.16C55.5473 9.44 55.5273 10.42 55.5273 11.1C55.5273 12.68 55.5673 14.21 55.6473 15.69C55.7473 17.15 55.8373 18.34 55.9173 19.26C56.0173 20.18 56.0873 20.76 56.1273 21H51.3273C51.3673 20.74 51.4273 20.13 51.5073 19.17C51.6073 18.19 51.6973 16.95 51.7773 15.45C51.8773 13.93 51.9273 12.38 51.9273 10.8C51.9273 9.22 51.8773 7.63 51.7773 6.03C51.6973 4.43 51.6073 3.1 51.5073 2.04C51.4273 0.96 51.3673 0.28 51.3273 0H56.1273C56.0873 0.36 56.0073 1.22 55.8873 2.58C55.7873 3.92 55.6973 5.39 55.6173 6.99C56.7973 5.73 58.3673 5.1 60.3273 5.1C61.6273 5.1 62.5973 5.42 63.2373 6.06C63.8973 6.7 64.3273 7.62 64.5273 8.82C64.7273 10.02 64.8273 11.68 64.8273 13.8C64.8273 15.72 64.8673 17.22 64.9473 18.3C65.0473 19.36 65.1473 20.11 65.2473 20.55C65.3673 20.97 65.4273 21.12 65.4273 21H60.6273Z" fill="black"/>
<path d="M80.4215 18.9C80.4215 20.26 80.8915 20.94 81.8315 20.94C82.0515 20.94 82.2515 20.91 82.4315 20.85C82.6315 20.77 82.7615 20.72 82.8215 20.7V21.3C81.8215 21.68 80.8815 21.87 80.0015 21.87C79.0415 21.87 78.2815 21.65 77.7215 21.21C77.1815 20.79 76.8815 20.32 76.8215 19.8V19.77C76.1415 20.29 75.3215 20.77 74.3615 21.21C73.4215 21.67 72.4415 21.9 71.4215 21.9C70.5015 21.9 69.6215 21.64 68.7815 21.12C67.9415 20.6 67.5215 19.56 67.5215 18C67.5215 16 68.2415 14.63 69.6815 13.89C71.1215 13.13 72.7715 12.75 74.6315 12.75C75.0515 12.75 75.7015 12.79 76.5815 12.87C76.5815 12.13 76.5615 11.04 76.5215 9.6C76.5015 8.58 76.4515 7.82 76.3715 7.32C76.2915 6.82 76.1015 6.43 75.8015 6.15C75.5215 5.85 75.0615 5.7 74.4215 5.7C73.7215 5.7 73.1515 5.88 72.7115 6.24C72.2915 6.6 71.9715 7.03 71.7515 7.53C71.5515 8.01 71.3515 8.61 71.1515 9.33C70.9915 9.95 70.8315 10.41 70.6715 10.71C70.5315 10.99 70.3415 11.13 70.1015 11.13C69.7615 11.13 69.3915 10.84 68.9915 10.26C68.6115 9.68 68.2815 9.08 68.0015 8.46C67.7415 7.82 67.5815 7.4 67.5215 7.2C69.8615 5.8 72.1615 5.1 74.4215 5.1C76.5215 5.1 78.0415 5.64 78.9815 6.72C79.9415 7.8 80.4215 9.46 80.4215 11.7V18.9ZM73.8215 20.4C74.6615 20.4 75.6515 20 76.7915 19.2C76.7515 18.32 76.6915 16.4 76.6115 13.44C75.9115 13.3 75.4815 13.22 75.3215 13.2C75.2015 13.18 74.9915 13.17 74.6915 13.17C73.7515 13.17 72.9215 13.43 72.2015 13.95C71.4815 14.45 71.1215 15.4 71.1215 16.8C71.1215 17.94 71.3815 18.83 71.9015 19.47C72.4215 20.09 73.0615 20.4 73.8215 20.4Z" fill="black"/>
<path d="M93.6086 21C93.6086 21.1 93.6586 20.95 93.7586 20.55C93.8786 20.13 93.9786 19.43 94.0586 18.45C94.1586 17.47 94.2086 16.12 94.2086 14.4C94.2086 11.96 94.1086 10.14 93.9086 8.94C93.7086 7.72 93.4386 6.93 93.0986 6.57C92.7786 6.19 92.3486 6 91.8086 6C90.6286 6 89.5586 6.69 88.5986 8.07L88.5686 9.03C88.5286 10.39 88.5086 11.58 88.5086 12.6C88.5086 14.46 88.5486 16.02 88.6286 17.28C88.7286 18.52 88.8286 19.48 88.9286 20.16C89.0486 20.84 89.1086 21.12 89.1086 21H84.3086C84.3486 20.84 84.4086 20.45 84.4886 19.83C84.5886 19.19 84.6786 18.27 84.7586 17.07C84.8586 15.87 84.9086 14.48 84.9086 12.9C84.9086 11.32 84.8586 9.95 84.7586 8.79C84.6786 7.63 84.5886 6.76 84.4886 6.18C84.4086 5.6 84.3486 5.24 84.3086 5.1H88.8086L88.6586 6.93C89.8386 5.71 91.3886 5.1 93.3086 5.1C94.6086 5.1 95.5786 5.42 96.2186 6.06C96.8786 6.7 97.3086 7.62 97.5086 8.82C97.7086 10.02 97.8086 11.68 97.8086 13.8C97.8086 15.72 97.8486 17.22 97.9286 18.3C98.0286 19.36 98.1286 20.11 98.2286 20.55C98.3486 20.97 98.4086 21.12 98.4086 21H93.6086Z" fill="black"/>
<circle cx="104" cy="18" r="3" fill="#09DF6D"/>
</svg>
